<?xml version="1.0" encoding="UTF-8" standalone="no"?>
<svg
   xmlns:dc="http://purl.org/dc/elements/1.1/"
   xmlns:cc="http://creativecommons.org/ns#"
   xmlns:rdf="http://www.w3.org/1999/02/22-rdf-syntax-ns#"
   xmlns:svg="http://www.w3.org/2000/svg"
   xmlns="http://www.w3.org/2000/svg"
   id="svg8"
   version="1.1"
   viewBox="0 0 220.15642 69.499209"
   height="262.67416"
   width="832.08728">
  <defs
     id="defs2" />
  <metadata
     id="metadata5">
    <rdf:RDF>
      <cc:Work
         rdf:about="">
        <dc:format>image/svg+xml</dc:format>
        <dc:type
           rdf:resource="http://purl.org/dc/dcmitype/StillImage" />
        <dc:title></dc:title>
      </cc:Work>
    </rdf:RDF>
  </metadata>
  <g
     transform="translate(-39.182765,-131.04124)"
     id="layer1">
    <g
       id="g1019">
      <rect
         style="fill:#afc6e9;stroke:none;stroke-width:0.05;stroke-miterlimit:4;stroke-dasharray:none;stroke-opacity:1"
         id="rect815"
         width="87.931671"
         height="5.8799295"
         x="138.83803"
         y="143.58727" />
      <rect
         style="fill:#3771c8;stroke:none;stroke-width:0.05;stroke-miterlimit:4;stroke-dasharray:none;stroke-opacity:1"
         id="rect815-3"
         width="87.931671"
         height="5.8799295"
         x="138.83803"
         y="159.51653" />
      <rect
         style="fill:#afc6e9;stroke:none;stroke-width:0.05;stroke-miterlimit:4;stroke-dasharray:none;stroke-opacity:1"
         id="rect815-6"
         width="87.931671"
         height="5.8799295"
         x="138.83803"
         y="151.5519" />
      <rect
         style="fill:#afc6e9;stroke:none;stroke-width:0.05;stroke-miterlimit:4;stroke-dasharray:none;stroke-opacity:1"
         id="rect815-7"
         width="87.931671"
         height="5.8799295"
         x="138.83803"
         y="167.48117" />
      <rect
         style="fill:#afc6e9;stroke:none;stroke-width:0.05;stroke-miterlimit:4;stroke-dasharray:none;stroke-opacity:1"
         id="rect815-5"
         width="87.931671"
         height="5.8799295"
         x="138.83803"
         y="175.44579" />
      <rect
         style="fill:#afc6e9;stroke:none;stroke-width:0.05;stroke-miterlimit:4;stroke-dasharray:none;stroke-opacity:1"
         id="rect815-35"
         width="87.931671"
         height="5.8799295"
         x="138.83803"
         y="183.41043" />
    </g>
    <g
       transform="translate(188.71581,3.5443445)"
       id="text873"
       style="font-style:normal;font-variant:normal;font-weight:bold;font-stretch:normal;font-size:10.58333302px;line-height:1.25;font-family:'DejaVu Sans';-inkscape-font-specification:'DejaVu Sans Bold';letter-spacing:0px;word-spacing:0px;fill:#000000;fill-opacity:1;stroke:none;stroke-width:0.26458332"
       aria-label="Series">
      <path
         id="path893"
         style="font-style:normal;font-variant:normal;font-weight:bold;font-stretch:normal;font-family:'Latin Modern Sans';-inkscape-font-specification:'Latin Modern Sans Bold';stroke-width:0.26458332"
         d="m 48.306103,160.71401 c 0,-1.18534 -0.878416,-2.07434 -1.93675,-2.31775 l -1.016,-0.23284 c -0.232833,-0.0529 -0.889,-0.29633 -0.889,-0.89958 0,-0.89958 0.899584,-0.92075 1.259417,-0.92075 0.592667,0 1.121833,0.13758 1.640417,0.64558 0.169333,0.15875 0.179916,0.16934 0.22225,0.16934 0.0635,0 0.116416,-0.0317 0.148166,-0.1905 l 0.15875,-0.92075 c 0.02117,-0.0847 0.02117,-0.10584 0.02117,-0.13759 0,-0.0847 -0.01058,-0.0952 -0.275167,-0.23283 -0.751416,-0.37042 -1.375833,-0.42333 -1.915583,-0.42333 -0.941917,0 -2.582333,0.22225 -2.582333,2.20133 0,0.75142 0.391583,1.23825 0.592666,1.44992 0.53975,0.55033 1.037167,0.65616 1.862667,0.84666 0.592667,0.13759 0.8255,0.1905 1.058333,0.40217 0.105834,0.10583 0.328084,0.32808 0.328084,0.73025 0,0.99483 -0.910167,1.02658 -1.259417,1.02658 -0.889,0 -1.661583,-0.35983 -2.19075,-0.83608 -0.127,-0.127 -0.148167,-0.127 -0.1905,-0.127 -0.0635,0 -0.116417,0.0317 -0.148167,0.1905 l -0.15875,0.92075 c -0.02117,0.0847 -0.02117,0.10583 -0.02117,0.13758 0,0.22225 1.100666,0.60325 1.153583,0.62442 0.709083,0.22225 1.280583,0.24342 1.55575,0.24342 1.5875,0 2.582333,-0.70909 2.582334,-2.3495 z" />
      <path
         id="path895"
         style="font-style:normal;font-variant:normal;font-weight:bold;font-stretch:normal;font-family:'Latin Modern Sans';-inkscape-font-specification:'Latin Modern Sans Bold';stroke-width:0.26458332"
         d="m 54.035159,160.07901 c 0,-1.36525 -0.635,-2.27542 -2.211916,-2.27542 -1.693334,0 -2.529417,0.9525 -2.529417,2.56117 0,1.73566 1.005417,2.58233 2.667,2.58233 0.402166,0 1.005416,-0.0529 1.703916,-0.40217 0.232834,-0.11641 0.306917,-0.14816 0.306917,-0.27516 0,-0.0741 -0.03175,-0.381 -0.04233,-0.46567 -0.04233,-0.32808 -0.05292,-0.33867 -0.148167,-0.33867 -0.04233,0 -0.0635,0 -0.179917,0.10584 -0.624416,0.53975 -1.259416,0.61383 -1.598083,0.61383 -1.195916,0 -1.322916,-0.94192 -1.354666,-1.61925 h 2.878666 c 0.243417,0 0.508,-0.0106 0.508,-0.48683 z m -1.17475,-0.0741 h -2.201333 c 0.03175,-0.64558 0.243417,-1.43933 1.164167,-1.43933 0.846666,0 1.005416,0.61383 1.037166,1.43933 z" />
      <path
         id="path897"
         style="font-style:normal;font-variant:normal;font-weight:bold;font-stretch:normal;font-family:'Latin Modern Sans';-inkscape-font-specification:'Latin Modern Sans Bold';stroke-width:0.26458332"
         d="m 58.149099,158.65026 v -0.49742 c 0,-0.21167 0,-0.28575 -0.1905,-0.28575 -0.296333,0 -1.068917,0.10583 -1.566333,1.24883 h -0.01058 v -0.68791 c 0,-0.33867 -0.07408,-0.508 -0.508,-0.508 H 55.53502 c -0.381,0 -0.508,0.11641 -0.508,0.508 v 3.89466 c 0,0.381 0.116417,0.508 0.508,0.508 h 0.391583 c 0.402167,0 0.508,-0.13758 0.508,-0.508 v -1.92616 c 0,-1.00542 0.836083,-1.41817 1.502833,-1.4605 0.1905,-0.0106 0.211667,-0.0106 0.211667,-0.28575 z" />
      <path
         id="path899"
         style="font-style:normal;font-variant:normal;font-weight:bold;font-stretch:normal;font-family:'Latin Modern Sans';-inkscape-font-specification:'Latin Modern Sans Bold';stroke-width:0.26458332"
         d="m 60.362008,162.32267 v -3.83116 c 0,-0.33867 -0.07408,-0.508 -0.508,-0.508 h -0.391583 c -0.381,0 -0.508,0.11641 -0.508,0.508 v 3.83116 c 0,0.381 0.116417,0.508 0.508,0.508 h 0.391583 c 0.402167,0 0.508,-0.13758 0.508,-0.508 z m 0.07408,-5.9055 v -0.20108 c 0,-0.33867 -0.07408,-0.508 -0.508,-0.508 h -0.53975 c -0.402167,0 -0.508,0.13758 -0.508,0.508 v 0.20108 c 0,0.30692 0.05292,0.508 0.508,0.508 h 0.53975 c 0.4445,0 0.508,-0.1905 0.508,-0.508 z" />
      <path
         id="path901"
         style="font-style:normal;font-variant:normal;font-weight:bold;font-stretch:normal;font-family:'Latin Modern Sans';-inkscape-font-specification:'Latin Modern Sans Bold';stroke-width:0.26458332"
         d="m 66.086102,160.07901 c 0,-1.36525 -0.635,-2.27542 -2.211917,-2.27542 -1.693333,0 -2.529416,0.9525 -2.529416,2.56117 0,1.73566 1.005416,2.58233 2.667,2.58233 0.402166,0 1.005416,-0.0529 1.703916,-0.40217 0.232834,-0.11641 0.306917,-0.14816 0.306917,-0.27516 0,-0.0741 -0.03175,-0.381 -0.04233,-0.46567 -0.04233,-0.32808 -0.05292,-0.33867 -0.148167,-0.33867 -0.04233,0 -0.0635,0 -0.179917,0.10584 -0.624416,0.53975 -1.259416,0.61383 -1.598083,0.61383 -1.195917,0 -1.322917,-0.94192 -1.354667,-1.61925 h 2.878667 c 0.243417,0 0.508,-0.0106 0.508,-0.48683 z m -1.17475,-0.0741 h -2.201333 c 0.03175,-0.64558 0.243416,-1.43933 1.164166,-1.43933 0.846667,0 1.005417,0.61383 1.037167,1.43933 z" />
      <path
         id="path903"
         style="font-style:normal;font-variant:normal;font-weight:bold;font-stretch:normal;font-family:'Latin Modern Sans';-inkscape-font-specification:'Latin Modern Sans Bold';stroke-width:0.26458332"
         d="m 70.623377,161.33842 c 0,-0.59266 -0.3175,-0.96308 -0.508,-1.13241 -0.423334,-0.381 -0.79375,-0.4445 -1.23825,-0.52917 -0.582084,-0.10583 -1.005417,-0.1905 -1.005417,-0.60325 0,-0.43392 0.34925,-0.51858 0.762,-0.51858 0.709083,0 1.090083,0.26458 1.36525,0.49741 0.105833,0.10584 0.127,0.10584 0.169333,0.10584 0.105834,0 0.127,-0.0953 0.137584,-0.13759 0.02117,-0.0847 0.127,-0.67733 0.127,-0.73025 0,-0.16933 -0.560917,-0.3175 -0.677334,-0.35983 -0.423333,-0.11642 -0.762,-0.127 -1.037166,-0.127 -0.47625,0 -1.894417,0 -1.894417,1.51342 0,0.51858 0.232834,0.83608 0.518584,1.09008 0.370416,0.33867 0.783166,0.41275 1.386416,0.52917 0.306917,0.0529 0.846667,0.14816 0.846667,0.61383 0,0.49742 -0.41275,0.5715 -0.8255,0.5715 -0.465667,0 -1.058334,-0.13758 -1.55575,-0.73025 -0.05292,-0.0529 -0.08467,-0.0847 -0.148167,-0.0847 -0.105833,0 -0.127,0.0952 -0.137583,0.15875 -0.02117,0.14817 -0.148167,0.75142 -0.148167,0.85725 0,0.1905 0.79375,0.4445 0.79375,0.4445 0.582083,0.17992 1.016,0.17992 1.195917,0.17992 0.53975,0 1.87325,-0.0423 1.87325,-1.60867 z" />
    </g>
    <g
       transform="translate(13.44949,5.2916669)"
       id="text873-0"
       style="font-style:normal;font-variant:normal;font-weight:bold;font-stretch:normal;font-size:10.58333302px;line-height:1.25;font-family:'DejaVu Sans';-inkscape-font-specification:'DejaVu Sans Bold';letter-spacing:0px;word-spacing:0px;fill:#000000;fill-opacity:1;stroke:none;stroke-width:0.26458332"
       aria-label="DataFrame">
      <path
         id="path906"
         style="font-style:normal;font-variant:normal;font-weight:bold;font-stretch:normal;font-family:'Latin Modern Sans';-inkscape-font-specification:'Latin Modern Sans Bold';stroke-width:0.26458332"
         d="m 149.77662,129.47491 c 0,-0.83609 -0.13759,-1.86267 -0.73025,-2.61409 -0.79375,-0.98425 -2.06375,-1.11125 -2.75167,-1.11125 h -2.794 c -0.381,0 -0.508,0.11642 -0.508,0.508 v 6.32884 c 0,0.381 0.11642,0.508 0.508,0.508 h 2.794 c 2.58233,0 3.48192,-1.54517 3.48192,-3.6195 z m -1.524,0 c 0,1.19591 -0.11642,2.70933 -2.37067,2.70933 h -1.36525 v -5.5245 h 1.35467 c 2.286,0 2.38125,1.62983 2.38125,2.81517 z" />
      <path
         id="path908"
         style="font-style:normal;font-variant:normal;font-weight:bold;font-stretch:normal;font-family:'Latin Modern Sans';-inkscape-font-specification:'Latin Modern Sans Bold';stroke-width:0.26458332"
         d="m 155.45904,132.58641 v -2.83634 c 0,-1.67216 -1.60867,-1.68275 -2.13783,-1.68275 -0.49742,0 -1.02659,0.0423 -1.73567,0.33867 -0.22225,0.0952 -0.27517,0.127 -0.27517,0.24342 0,0.0741 0.0635,0.68791 0.0741,0.77258 0.0106,0.0635 0.0635,0.11642 0.13758,0.11642 0.0529,0 0.0847,-0.0317 0.11642,-0.0635 0.45508,-0.47625 0.98425,-0.70909 1.64041,-0.70909 0.5715,0 0.74084,0.34925 0.74084,0.97367 v 0.37042 c -0.37042,0 -3.14325,0.0212 -3.14325,1.57691 0,0.74084 0.59266,1.524 1.524,1.524 0.35983,0 1.15358,-0.10583 1.651,-0.83608 v 0.21167 c 0,0.33866 0.0741,0.508 0.508,0.508 h 0.39158 c 0.40217,0 0.508,-0.13759 0.508,-0.508 z m -1.43933,-1.12184 c 0,0.98425 -1.00542,0.98425 -1.03717,0.98425 -0.4445,0 -0.73025,-0.381 -0.73025,-0.78316 0,-1.03717 1.47108,-1.11125 1.76742,-1.12184 z" />
      <path
         id="path910"
         style="font-style:normal;font-variant:normal;font-weight:bold;font-stretch:normal;font-family:'Latin Modern Sans';-inkscape-font-specification:'Latin Modern Sans Bold';stroke-width:0.26458332"
         d="m 159.95051,132.59699 c 0,-0.0318 -0.0212,-0.10583 -0.0847,-0.32808 -0.0529,-0.21167 -0.0741,-0.27517 -0.16933,-0.27517 -0.0529,0 -0.0635,0.0106 -0.127,0.0741 -0.11642,0.0847 -0.40217,0.3175 -0.84667,0.3175 -0.254,0 -0.41275,-0.17991 -0.41275,-0.87841 v -2.49767 h 0.94192 c 0.127,0 0.508,0 0.508,-0.381 0,-0.381 -0.381,-0.381 -0.508,-0.381 h -0.94192 v -0.87842 c 0,-0.33866 -0.0741,-0.508 -0.508,-0.508 h -0.32808 c -0.381,0 -0.508,0.11642 -0.508,0.508 v 0.87842 h -0.24342 c -0.11642,0 -0.508,0 -0.508,0.381 0,0.381 0.381,0.381 0.508,0.381 h 0.21167 v 2.67758 c 0,1.06892 0.381,1.524 1.11125,1.524 0.0952,0 0.56091,0 1.11125,-0.16933 0.17991,-0.0529 0.79375,-0.24342 0.79375,-0.4445 z" />
      <path
         id="path912"
         style="font-style:normal;font-variant:normal;font-weight:bold;font-stretch:normal;font-family:'Latin Modern Sans';-inkscape-font-specification:'Latin Modern Sans Bold';stroke-width:0.26458332"
         d="m 165.29823,132.58641 v -2.83634 c 0,-1.67216 -1.60866,-1.68275 -2.13783,-1.68275 -0.49742,0 -1.02658,0.0423 -1.73567,0.33867 -0.22225,0.0952 -0.27516,0.127 -0.27516,0.24342 0,0.0741 0.0635,0.68791 0.0741,0.77258 0.0106,0.0635 0.0635,0.11642 0.13758,0.11642 0.0529,0 0.0847,-0.0317 0.11642,-0.0635 0.45508,-0.47625 0.98425,-0.70909 1.64042,-0.70909 0.5715,0 0.74083,0.34925 0.74083,0.97367 v 0.37042 c -0.37042,0 -3.14325,0.0212 -3.14325,1.57691 0,0.74084 0.59267,1.524 1.524,1.524 0.35983,0 1.15358,-0.10583 1.651,-0.83608 v 0.21167 c 0,0.33866 0.0741,0.508 0.508,0.508 h 0.39158 c 0.40217,0 0.508,-0.13759 0.508,-0.508 z m -1.43933,-1.12184 c 0,0.98425 -1.00542,0.98425 -1.03717,0.98425 -0.4445,0 -0.73025,-0.381 -0.73025,-0.78316 0,-1.03717 1.47109,-1.11125 1.76742,-1.12184 z" />
      <path
         id="path914"
         style="font-style:normal;font-variant:normal;font-weight:bold;font-stretch:normal;font-family:'Latin Modern Sans';-inkscape-font-specification:'Latin Modern Sans Bold';stroke-width:0.26458332"
         d="m 171.81112,126.37399 v -0.0847 c 0,-0.33866 -0.0741,-0.508 -0.508,-0.508 h -3.98992 c -0.381,0 -0.508,0.11642 -0.508,0.508 v 6.29709 c 0,0.381 0.11642,0.508 0.508,0.508 h 0.53975 c 0.40217,0 0.508,-0.13759 0.508,-0.508 v -2.65642 h 2.45533 c 0.32809,0 0.508,-0.0741 0.508,-0.49742 0,-0.39158 -0.13758,-0.49741 -0.508,-0.49741 h -2.45533 v -2.08492 h 0.45508 l 2.39184,0.0318 c 0.35983,0 0.60325,0 0.60325,-0.508 z" />
      <path
         id="path916"
         style="font-style:normal;font-variant:normal;font-weight:bold;font-stretch:normal;font-family:'Latin Modern Sans';-inkscape-font-specification:'Latin Modern Sans Bold';stroke-width:0.26458332"
         d="m 175.74894,128.91399 v -0.49742 c 0,-0.21166 0,-0.28575 -0.1905,-0.28575 -0.29633,0 -1.06891,0.10584 -1.56633,1.24884 h -0.0106 v -0.68792 c 0,-0.33867 -0.0741,-0.508 -0.508,-0.508 h -0.33867 c -0.381,0 -0.508,0.11642 -0.508,0.508 v 3.89467 c 0,0.381 0.11642,0.508 0.508,0.508 h 0.39158 c 0.40217,0 0.508,-0.13759 0.508,-0.508 v -1.92617 c 0,-1.00542 0.83609,-1.41817 1.50284,-1.4605 0.1905,-0.0106 0.21166,-0.0106 0.21166,-0.28575 z" />
      <path
         id="path918"
         style="font-style:normal;font-variant:normal;font-weight:bold;font-stretch:normal;font-family:'Latin Modern Sans';-inkscape-font-specification:'Latin Modern Sans Bold';stroke-width:0.26458332"
         d="m 180.92518,132.58641 v -2.83634 c 0,-1.67216 -1.60866,-1.68275 -2.13783,-1.68275 -0.49742,0 -1.02658,0.0423 -1.73567,0.33867 -0.22225,0.0952 -0.27516,0.127 -0.27516,0.24342 0,0.0741 0.0635,0.68791 0.0741,0.77258 0.0106,0.0635 0.0635,0.11642 0.13758,0.11642 0.0529,0 0.0847,-0.0317 0.11642,-0.0635 0.45508,-0.47625 0.98425,-0.70909 1.64042,-0.70909 0.5715,0 0.74083,0.34925 0.74083,0.97367 v 0.37042 c -0.37042,0 -3.14325,0.0212 -3.14325,1.57691 0,0.74084 0.59267,1.524 1.524,1.524 0.35983,0 1.15358,-0.10583 1.651,-0.83608 v 0.21167 c 0,0.33866 0.0741,0.508 0.508,0.508 h 0.39158 c 0.40217,0 0.508,-0.13759 0.508,-0.508 z m -1.43933,-1.12184 c 0,0.98425 -1.00542,0.98425 -1.03717,0.98425 -0.4445,0 -0.73025,-0.381 -0.73025,-0.78316 0,-1.03717 1.47109,-1.11125 1.76742,-1.12184 z" />
      <path
         id="path920"
         style="font-style:normal;font-variant:normal;font-weight:bold;font-stretch:normal;font-family:'Latin Modern Sans';-inkscape-font-specification:'Latin Modern Sans Bold';stroke-width:0.26458332"
         d="m 189.99924,132.58641 v -2.93159 c 0,-1.09008 -0.46567,-1.524 -1.54517,-1.524 -0.75142,0 -1.3335,0.34925 -1.7145,1.04775 -0.16933,-1.016 -1.06892,-1.04775 -1.51342,-1.04775 -0.20108,0 -0.64558,0 -1.12183,0.34925 -0.32808,0.24342 -0.53975,0.58209 -0.61383,0.74084 h -0.0106 v -0.52917 c 0,-0.33867 -0.0741,-0.508 -0.508,-0.508 h -0.35983 c -0.381,0 -0.508,0.11642 -0.508,0.508 v 3.89467 c 0,0.381 0.11642,0.508 0.508,0.508 h 0.42333 c 0.40217,0 0.508,-0.13759 0.508,-0.508 v -2.33892 c 0,-0.9525 0.64559,-1.35467 1.16417,-1.35467 0.508,0 0.62442,0.22225 0.62442,0.78317 v 2.91042 c 0,0.381 0.11641,0.508 0.508,0.508 h 0.42333 c 0.40217,0 0.508,-0.13759 0.508,-0.508 v -2.33892 c 0,-0.9525 0.64558,-1.35467 1.16417,-1.35467 0.508,0 0.62441,0.22225 0.62441,0.78317 v 2.91042 c 0,0.381 0.11642,0.508 0.508,0.508 h 0.42334 c 0.40216,0 0.508,-0.13759 0.508,-0.508 z" />
      <path
         id="path922"
         style="font-style:normal;font-variant:normal;font-weight:bold;font-stretch:normal;font-family:'Latin Modern Sans';-inkscape-font-specification:'Latin Modern Sans Bold';stroke-width:0.26458332"
         d="m 195.71622,130.34274 c 0,-1.36525 -0.635,-2.27542 -2.21192,-2.27542 -1.69333,0 -2.52941,0.9525 -2.52941,2.56117 0,1.73567 1.00541,2.58233 2.667,2.58233 0.40216,0 1.00541,-0.0529 1.70391,-0.40216 0.23284,-0.11642 0.30692,-0.14817 0.30692,-0.27517 0,-0.0741 -0.0317,-0.381 -0.0423,-0.46567 -0.0423,-0.32808 -0.0529,-0.33866 -0.14817,-0.33866 -0.0423,0 -0.0635,0 -0.17992,0.10583 -0.62441,0.53975 -1.25941,0.61383 -1.59808,0.61383 -1.19592,0 -1.32292,-0.94191 -1.35467,-1.61925 h 2.87867 c 0.24342,0 0.508,-0.0106 0.508,-0.48683 z m -1.17475,-0.0741 h -2.20133 c 0.0318,-0.64559 0.24341,-1.43934 1.16416,-1.43934 0.84667,0 1.00542,0.61384 1.03717,1.43934 z" />
    </g>
    <g
       transform="matrix(1,0,0,0.92432432,30.772266,12.595391)"
       id="g1011">
      <rect
         style="fill:#ff6600;stroke:none;stroke-width:0.06238119;stroke-miterlimit:4;stroke-dasharray:none;stroke-opacity:1"
         id="rect815-78"
         width="16.276594"
         height="49.444862"
         x="26.324255"
         y="141.71637" />
      <rect
         style="fill:#ff9955;stroke:none;stroke-width:0.06238119;stroke-miterlimit:4;stroke-dasharray:none;stroke-opacity:1"
         id="rect815-78-9"
         width="16.276594"
         height="49.444862"
         x="62.151817"
         y="141.71637" />
      <rect
         style="fill:#ff9955;stroke:none;stroke-width:0.06238119;stroke-miterlimit:4;stroke-dasharray:none;stroke-opacity:1"
         id="rect815-78-1"
         width="16.276594"
         height="49.444862"
         x="8.4104986"
         y="141.71637" />
      <rect
         style="fill:#ff9955;stroke:none;stroke-width:0.06238119;stroke-miterlimit:4;stroke-dasharray:none;stroke-opacity:1"
         id="rect815-78-5"
         width="16.276594"
         height="49.444862"
         x="44.238045"
         y="141.71637" />
      <rect
         style="fill:#ff9955;stroke:none;stroke-width:0.06238119;stroke-miterlimit:4;stroke-dasharray:none;stroke-opacity:1"
         id="rect815-78-4"
         width="16.276594"
         height="49.444862"
         x="80.065575"
         y="141.71637" />
    </g>
    <g
       transform="translate(8.6739995,37.476936)"
       id="text873-9"
       style="font-style:normal;font-variant:normal;font-weight:bold;font-stretch:normal;font-size:10.58333302px;line-height:1.25;font-family:'DejaVu Sans';-inkscape-font-specification:'DejaVu Sans Bold';letter-spacing:0px;word-spacing:0px;fill:#000000;fill-opacity:1;stroke:none;stroke-width:0.26458332"
       aria-label="Series">
      <path
         id="path893-2"
         style="font-style:normal;font-variant:normal;font-weight:bold;font-stretch:normal;font-family:'Latin Modern Sans';-inkscape-font-specification:'Latin Modern Sans Bold';stroke-width:0.26458332"
         d="m 48.306103,160.71401 c 0,-1.18534 -0.878416,-2.07434 -1.93675,-2.31775 l -1.016,-0.23284 c -0.232833,-0.0529 -0.889,-0.29633 -0.889,-0.89958 0,-0.89958 0.899584,-0.92075 1.259417,-0.92075 0.592667,0 1.121833,0.13758 1.640417,0.64558 0.169333,0.15875 0.179916,0.16934 0.22225,0.16934 0.0635,0 0.116416,-0.0317 0.148166,-0.1905 l 0.15875,-0.92075 c 0.02117,-0.0847 0.02117,-0.10584 0.02117,-0.13759 0,-0.0847 -0.01058,-0.0952 -0.275167,-0.23283 -0.751416,-0.37042 -1.375833,-0.42333 -1.915583,-0.42333 -0.941917,0 -2.582333,0.22225 -2.582333,2.20133 0,0.75142 0.391583,1.23825 0.592666,1.44992 0.53975,0.55033 1.037167,0.65616 1.862667,0.84666 0.592667,0.13759 0.8255,0.1905 1.058333,0.40217 0.105834,0.10583 0.328084,0.32808 0.328084,0.73025 0,0.99483 -0.910167,1.02658 -1.259417,1.02658 -0.889,0 -1.661583,-0.35983 -2.19075,-0.83608 -0.127,-0.127 -0.148167,-0.127 -0.1905,-0.127 -0.0635,0 -0.116417,0.0317 -0.148167,0.1905 l -0.15875,0.92075 c -0.02117,0.0847 -0.02117,0.10583 -0.02117,0.13758 0,0.22225 1.100666,0.60325 1.153583,0.62442 0.709083,0.22225 1.280583,0.24342 1.55575,0.24342 1.5875,0 2.582333,-0.70909 2.582334,-2.3495 z" />
      <path
         id="path895-5"
         style="font-style:normal;font-variant:normal;font-weight:bold;font-stretch:normal;font-family:'Latin Modern Sans';-inkscape-font-specification:'Latin Modern Sans Bold';stroke-width:0.26458332"
         d="m 54.035159,160.07901 c 0,-1.36525 -0.635,-2.27542 -2.211916,-2.27542 -1.693334,0 -2.529417,0.9525 -2.529417,2.56117 0,1.73566 1.005417,2.58233 2.667,2.58233 0.402166,0 1.005416,-0.0529 1.703916,-0.40217 0.232834,-0.11641 0.306917,-0.14816 0.306917,-0.27516 0,-0.0741 -0.03175,-0.381 -0.04233,-0.46567 -0.04233,-0.32808 -0.05292,-0.33867 -0.148167,-0.33867 -0.04233,0 -0.0635,0 -0.179917,0.10584 -0.624416,0.53975 -1.259416,0.61383 -1.598083,0.61383 -1.195916,0 -1.322916,-0.94192 -1.354666,-1.61925 h 2.878666 c 0.243417,0 0.508,-0.0106 0.508,-0.48683 z m -1.17475,-0.0741 h -2.201333 c 0.03175,-0.64558 0.243417,-1.43933 1.164167,-1.43933 0.846666,0 1.005416,0.61383 1.037166,1.43933 z" />
      <path
         id="path897-7"
         style="font-style:normal;font-variant:normal;font-weight:bold;font-stretch:normal;font-family:'Latin Modern Sans';-inkscape-font-specification:'Latin Modern Sans Bold';stroke-width:0.26458332"
         d="m 58.149099,158.65026 v -0.49742 c 0,-0.21167 0,-0.28575 -0.1905,-0.28575 -0.296333,0 -1.068917,0.10583 -1.566333,1.24883 h -0.01058 v -0.68791 c 0,-0.33867 -0.07408,-0.508 -0.508,-0.508 H 55.53502 c -0.381,0 -0.508,0.11641 -0.508,0.508 v 3.89466 c 0,0.381 0.116417,0.508 0.508,0.508 h 0.391583 c 0.402167,0 0.508,-0.13758 0.508,-0.508 v -1.92616 c 0,-1.00542 0.836083,-1.41817 1.502833,-1.4605 0.1905,-0.0106 0.211667,-0.0106 0.211667,-0.28575 z" />
      <path
         id="path899-4"
         style="font-style:normal;font-variant:normal;font-weight:bold;font-stretch:normal;font-family:'Latin Modern Sans';-inkscape-font-specification:'Latin Modern Sans Bold';stroke-width:0.26458332"
         d="m 60.362008,162.32267 v -3.83116 c 0,-0.33867 -0.07408,-0.508 -0.508,-0.508 h -0.391583 c -0.381,0 -0.508,0.11641 -0.508,0.508 v 3.83116 c 0,0.381 0.116417,0.508 0.508,0.508 h 0.391583 c 0.402167,0 0.508,-0.13758 0.508,-0.508 z m 0.07408,-5.9055 v -0.20108 c 0,-0.33867 -0.07408,-0.508 -0.508,-0.508 h -0.53975 c -0.402167,0 -0.508,0.13758 -0.508,0.508 v 0.20108 c 0,0.30692 0.05292,0.508 0.508,0.508 h 0.53975 c 0.4445,0 0.508,-0.1905 0.508,-0.508 z" />
      <path
         id="path901-9"
         style="font-style:normal;font-variant:normal;font-weight:bold;font-stretch:normal;font-family:'Latin Modern Sans';-inkscape-font-specification:'Latin Modern Sans Bold';stroke-width:0.26458332"
         d="m 66.086102,160.07901 c 0,-1.36525 -0.635,-2.27542 -2.211917,-2.27542 -1.693333,0 -2.529416,0.9525 -2.529416,2.56117 0,1.73566 1.005416,2.58233 2.667,2.58233 0.402166,0 1.005416,-0.0529 1.703916,-0.40217 0.232834,-0.11641 0.306917,-0.14816 0.306917,-0.27516 0,-0.0741 -0.03175,-0.381 -0.04233,-0.46567 -0.04233,-0.32808 -0.05292,-0.33867 -0.148167,-0.33867 -0.04233,0 -0.0635,0 -0.179917,0.10584 -0.624416,0.53975 -1.259416,0.61383 -1.598083,0.61383 -1.195917,0 -1.322917,-0.94192 -1.354667,-1.61925 h 2.878667 c 0.243417,0 0.508,-0.0106 0.508,-0.48683 z m -1.17475,-0.0741 h -2.201333 c 0.03175,-0.64558 0.243416,-1.43933 1.164166,-1.43933 0.846667,0 1.005417,0.61383 1.037167,1.43933 z" />
      <path
         id="path903-9"
         style="font-style:normal;font-variant:normal;font-weight:bold;font-stretch:normal;font-family:'Latin Modern Sans';-inkscape-font-specification:'Latin Modern Sans Bold';stroke-width:0.26458332"
         d="m 70.623377,161.33842 c 0,-0.59266 -0.3175,-0.96308 -0.508,-1.13241 -0.423334,-0.381 -0.79375,-0.4445 -1.23825,-0.52917 -0.582084,-0.10583 -1.005417,-0.1905 -1.005417,-0.60325 0,-0.43392 0.34925,-0.51858 0.762,-0.51858 0.709083,0 1.090083,0.26458 1.36525,0.49741 0.105833,0.10584 0.127,0.10584 0.169333,0.10584 0.105834,0 0.127,-0.0953 0.137584,-0.13759 0.02117,-0.0847 0.127,-0.67733 0.127,-0.73025 0,-0.16933 -0.560917,-0.3175 -0.677334,-0.35983 -0.423333,-0.11642 -0.762,-0.127 -1.037166,-0.127 -0.47625,0 -1.894417,0 -1.894417,1.51342 0,0.51858 0.232834,0.83608 0.518584,1.09008 0.370416,0.33867 0.783166,0.41275 1.386416,0.52917 0.306917,0.0529 0.846667,0.14816 0.846667,0.61383 0,0.49742 -0.41275,0.5715 -0.8255,0.5715 -0.465667,0 -1.058334,-0.13758 -1.55575,-0.73025 -0.05292,-0.0529 -0.08467,-0.0847 -0.148167,-0.0847 -0.105833,0 -0.127,0.0952 -0.137583,0.15875 -0.02117,0.14817 -0.148167,0.75142 -0.148167,0.85725 0,0.1905 0.79375,0.4445 0.79375,0.4445 0.582083,0.17992 1.016,0.17992 1.195917,0.17992 0.53975,0 1.87325,-0.0423 1.87325,-1.60867 z" />
    </g>
    <g
       transform="translate(-86.205875,5.2916669)"
       id="text873-0-4"
       style="font-style:normal;font-variant:normal;font-weight:bold;font-stretch:normal;font-size:10.58333302px;line-height:1.25;font-family:'DejaVu Sans';-inkscape-font-specification:'DejaVu Sans Bold';letter-spacing:0px;word-spacing:0px;fill:#000000;fill-opacity:1;stroke:none;stroke-width:0.26458332"
       aria-label="DataFrame">
      <path
         id="path906-5"
         style="font-style:normal;font-variant:normal;font-weight:bold;font-stretch:normal;font-family:'Latin Modern Sans';-inkscape-font-specification:'Latin Modern Sans Bold';stroke-width:0.26458332"
         d="m 149.77662,129.47491 c 0,-0.83609 -0.13759,-1.86267 -0.73025,-2.61409 -0.79375,-0.98425 -2.06375,-1.11125 -2.75167,-1.11125 h -2.794 c -0.381,0 -0.508,0.11642 -0.508,0.508 v 6.32884 c 0,0.381 0.11642,0.508 0.508,0.508 h 2.794 c 2.58233,0 3.48192,-1.54517 3.48192,-3.6195 z m -1.524,0 c 0,1.19591 -0.11642,2.70933 -2.37067,2.70933 h -1.36525 v -5.5245 h 1.35467 c 2.286,0 2.38125,1.62983 2.38125,2.81517 z" />
      <path
         id="path908-9"
         style="font-style:normal;font-variant:normal;font-weight:bold;font-stretch:normal;font-family:'Latin Modern Sans';-inkscape-font-specification:'Latin Modern Sans Bold';stroke-width:0.26458332"
         d="m 155.45904,132.58641 v -2.83634 c 0,-1.67216 -1.60867,-1.68275 -2.13783,-1.68275 -0.49742,0 -1.02659,0.0423 -1.73567,0.33867 -0.22225,0.0952 -0.27517,0.127 -0.27517,0.24342 0,0.0741 0.0635,0.68791 0.0741,0.77258 0.0106,0.0635 0.0635,0.11642 0.13758,0.11642 0.0529,0 0.0847,-0.0317 0.11642,-0.0635 0.45508,-0.47625 0.98425,-0.70909 1.64041,-0.70909 0.5715,0 0.74084,0.34925 0.74084,0.97367 v 0.37042 c -0.37042,0 -3.14325,0.0212 -3.14325,1.57691 0,0.74084 0.59266,1.524 1.524,1.524 0.35983,0 1.15358,-0.10583 1.651,-0.83608 v 0.21167 c 0,0.33866 0.0741,0.508 0.508,0.508 h 0.39158 c 0.40217,0 0.508,-0.13759 0.508,-0.508 z m -1.43933,-1.12184 c 0,0.98425 -1.00542,0.98425 -1.03717,0.98425 -0.4445,0 -0.73025,-0.381 -0.73025,-0.78316 0,-1.03717 1.47108,-1.11125 1.76742,-1.12184 z" />
      <path
         id="path910-3"
         style="font-style:normal;font-variant:normal;font-weight:bold;font-stretch:normal;font-family:'Latin Modern Sans';-inkscape-font-specification:'Latin Modern Sans Bold';stroke-width:0.26458332"
         d="m 159.95051,132.59699 c 0,-0.0318 -0.0212,-0.10583 -0.0847,-0.32808 -0.0529,-0.21167 -0.0741,-0.27517 -0.16933,-0.27517 -0.0529,0 -0.0635,0.0106 -0.127,0.0741 -0.11642,0.0847 -0.40217,0.3175 -0.84667,0.3175 -0.254,0 -0.41275,-0.17991 -0.41275,-0.87841 v -2.49767 h 0.94192 c 0.127,0 0.508,0 0.508,-0.381 0,-0.381 -0.381,-0.381 -0.508,-0.381 h -0.94192 v -0.87842 c 0,-0.33866 -0.0741,-0.508 -0.508,-0.508 h -0.32808 c -0.381,0 -0.508,0.11642 -0.508,0.508 v 0.87842 h -0.24342 c -0.11642,0 -0.508,0 -0.508,0.381 0,0.381 0.381,0.381 0.508,0.381 h 0.21167 v 2.67758 c 0,1.06892 0.381,1.524 1.11125,1.524 0.0952,0 0.56091,0 1.11125,-0.16933 0.17991,-0.0529 0.79375,-0.24342 0.79375,-0.4445 z" />
      <path
         id="path912-5"
         style="font-style:normal;font-variant:normal;font-weight:bold;font-stretch:normal;font-family:'Latin Modern Sans';-inkscape-font-specification:'Latin Modern Sans Bold';stroke-width:0.26458332"
         d="m 165.29823,132.58641 v -2.83634 c 0,-1.67216 -1.60866,-1.68275 -2.13783,-1.68275 -0.49742,0 -1.02658,0.0423 -1.73567,0.33867 -0.22225,0.0952 -0.27516,0.127 -0.27516,0.24342 0,0.0741 0.0635,0.68791 0.0741,0.77258 0.0106,0.0635 0.0635,0.11642 0.13758,0.11642 0.0529,0 0.0847,-0.0317 0.11642,-0.0635 0.45508,-0.47625 0.98425,-0.70909 1.64042,-0.70909 0.5715,0 0.74083,0.34925 0.74083,0.97367 v 0.37042 c -0.37042,0 -3.14325,0.0212 -3.14325,1.57691 0,0.74084 0.59267,1.524 1.524,1.524 0.35983,0 1.15358,-0.10583 1.651,-0.83608 v 0.21167 c 0,0.33866 0.0741,0.508 0.508,0.508 h 0.39158 c 0.40217,0 0.508,-0.13759 0.508,-0.508 z m -1.43933,-1.12184 c 0,0.98425 -1.00542,0.98425 -1.03717,0.98425 -0.4445,0 -0.73025,-0.381 -0.73025,-0.78316 0,-1.03717 1.47109,-1.11125 1.76742,-1.12184 z" />
      <path
         id="path914-7"
         style="font-style:normal;font-variant:normal;font-weight:bold;font-stretch:normal;font-family:'Latin Modern Sans';-inkscape-font-specification:'Latin Modern Sans Bold';stroke-width:0.26458332"
         d="m 171.81112,126.37399 v -0.0847 c 0,-0.33866 -0.0741,-0.508 -0.508,-0.508 h -3.98992 c -0.381,0 -0.508,0.11642 -0.508,0.508 v 6.29709 c 0,0.381 0.11642,0.508 0.508,0.508 h 0.53975 c 0.40217,0 0.508,-0.13759 0.508,-0.508 v -2.65642 h 2.45533 c 0.32809,0 0.508,-0.0741 0.508,-0.49742 0,-0.39158 -0.13758,-0.49741 -0.508,-0.49741 h -2.45533 v -2.08492 h 0.45508 l 2.39184,0.0318 c 0.35983,0 0.60325,0 0.60325,-0.508 z" />
      <path
         id="path916-0"
         style="font-style:normal;font-variant:normal;font-weight:bold;font-stretch:normal;font-family:'Latin Modern Sans';-inkscape-font-specification:'Latin Modern Sans Bold';stroke-width:0.26458332"
         d="m 175.74894,128.91399 v -0.49742 c 0,-0.21166 0,-0.28575 -0.1905,-0.28575 -0.29633,0 -1.06891,0.10584 -1.56633,1.24884 h -0.0106 v -0.68792 c 0,-0.33867 -0.0741,-0.508 -0.508,-0.508 h -0.33867 c -0.381,0 -0.508,0.11642 -0.508,0.508 v 3.89467 c 0,0.381 0.11642,0.508 0.508,0.508 h 0.39158 c 0.40217,0 0.508,-0.13759 0.508,-0.508 v -1.92617 c 0,-1.00542 0.83609,-1.41817 1.50284,-1.4605 0.1905,-0.0106 0.21166,-0.0106 0.21166,-0.28575 z" />
      <path
         id="path918-8"
         style="font-style:normal;font-variant:normal;font-weight:bold;font-stretch:normal;font-family:'Latin Modern Sans';-inkscape-font-specification:'Latin Modern Sans Bold';stroke-width:0.26458332"
         d="m 180.92518,132.58641 v -2.83634 c 0,-1.67216 -1.60866,-1.68275 -2.13783,-1.68275 -0.49742,0 -1.02658,0.0423 -1.73567,0.33867 -0.22225,0.0952 -0.27516,0.127 -0.27516,0.24342 0,0.0741 0.0635,0.68791 0.0741,0.77258 0.0106,0.0635 0.0635,0.11642 0.13758,0.11642 0.0529,0 0.0847,-0.0317 0.11642,-0.0635 0.45508,-0.47625 0.98425,-0.70909 1.64042,-0.70909 0.5715,0 0.74083,0.34925 0.74083,0.97367 v 0.37042 c -0.37042,0 -3.14325,0.0212 -3.14325,1.57691 0,0.74084 0.59267,1.524 1.524,1.524 0.35983,0 1.15358,-0.10583 1.651,-0.83608 v 0.21167 c 0,0.33866 0.0741,0.508 0.508,0.508 h 0.39158 c 0.40217,0 0.508,-0.13759 0.508,-0.508 z m -1.43933,-1.12184 c 0,0.98425 -1.00542,0.98425 -1.03717,0.98425 -0.4445,0 -0.73025,-0.381 -0.73025,-0.78316 0,-1.03717 1.47109,-1.11125 1.76742,-1.12184 z" />
      <path
         id="path920-1"
         style="font-style:normal;font-variant:normal;font-weight:bold;font-stretch:normal;font-family:'Latin Modern Sans';-inkscape-font-specification:'Latin Modern Sans Bold';stroke-width:0.26458332"
         d="m 189.99924,132.58641 v -2.93159 c 0,-1.09008 -0.46567,-1.524 -1.54517,-1.524 -0.75142,0 -1.3335,0.34925 -1.7145,1.04775 -0.16933,-1.016 -1.06892,-1.04775 -1.51342,-1.04775 -0.20108,0 -0.64558,0 -1.12183,0.34925 -0.32808,0.24342 -0.53975,0.58209 -0.61383,0.74084 h -0.0106 v -0.52917 c 0,-0.33867 -0.0741,-0.508 -0.508,-0.508 h -0.35983 c -0.381,0 -0.508,0.11642 -0.508,0.508 v 3.89467 c 0,0.381 0.11642,0.508 0.508,0.508 h 0.42333 c 0.40217,0 0.508,-0.13759 0.508,-0.508 v -2.33892 c 0,-0.9525 0.64559,-1.35467 1.16417,-1.35467 0.508,0 0.62442,0.22225 0.62442,0.78317 v 2.91042 c 0,0.381 0.11641,0.508 0.508,0.508 h 0.42333 c 0.40217,0 0.508,-0.13759 0.508,-0.508 v -2.33892 c 0,-0.9525 0.64558,-1.35467 1.16417,-1.35467 0.508,0 0.62441,0.22225 0.62441,0.78317 v 2.91042 c 0,0.381 0.11642,0.508 0.508,0.508 h 0.42334 c 0.40216,0 0.508,-0.13759 0.508,-0.508 z" />
      <path
         id="path922-9"
         style="font-style:normal;font-variant:normal;font-weight:bold;font-stretch:normal;font-family:'Latin Modern Sans';-inkscape-font-specification:'Latin Modern Sans Bold';stroke-width:0.26458332"
         d="m 195.71622,130.34274 c 0,-1.36525 -0.635,-2.27542 -2.21192,-2.27542 -1.69333,0 -2.52941,0.9525 -2.52941,2.56117 0,1.73567 1.00541,2.58233 2.667,2.58233 0.40216,0 1.00541,-0.0529 1.70391,-0.40216 0.23284,-0.11642 0.30692,-0.14817 0.30692,-0.27517 0,-0.0741 -0.0317,-0.381 -0.0423,-0.46567 -0.0423,-0.32808 -0.0529,-0.33866 -0.14817,-0.33866 -0.0423,0 -0.0635,0 -0.17992,0.10583 -0.62441,0.53975 -1.25941,0.61383 -1.59808,0.61383 -1.19592,0 -1.32292,-0.94191 -1.35467,-1.61925 h 2.87867 c 0.24342,0 0.508,-0.0106 0.508,-0.48683 z m -1.17475,-0.0741 h -2.20133 c 0.0318,-0.64559 0.24341,-1.43934 1.16416,-1.43934 0.84667,0 1.00542,0.61384 1.03717,1.43934 z" />
    </g>
  </g>
</svg>
